<svg width="240" height="240" viewBox="0 0 240 240" fill="none" xmlns="http://www.w3.org/2000/svg">
<path fill-rule="evenodd" clip-rule="evenodd" d="M160.28 64.8516C171.896 68.1433 180.084 75.9505 183.203 86.7105L183.999 89.4577V122.074C183.999 158.663 184.141 156.492 181.36 162.491C179.488 166.529 177.642 169.096 174.417 172.146C171.338 175.057 169.058 176.536 164.894 178.321C159.291 180.723 158.811 180.763 136.396 180.669C122.509 180.611 115.786 180.707 114.642 180.979C113.507 181.25 112.345 181.932 110.94 183.152C108.791 185.018 100.768 192.504 95.669 197.401C91.3707 201.529 90.3908 202.118 87.8223 202.118C84.476 202.118 82.1206 200.349 81.2024 197.148C81.0137 196.49 80.8593 192.97 80.8593 189.326C80.8593 181.279 80.6766 180.628 78.1625 179.73C74.8176 178.534 70.0728 176.1 67.9346 174.483C63.0833 170.814 59.2469 165.478 57.1897 159.538L56 156.102V89.4577L56.8163 86.6368C57.7832 83.2951 60.2508 78.472 62.3855 75.7523C65.6722 71.5647 71.2424 67.6754 76.8042 65.6849C81.6255 63.9592 81.7486 63.9546 120.881 64.0188C157.465 64.0791 157.559 64.0812 160.28 64.8516ZM126.053 79.4597C125.159 79.9022 124.136 80.8053 123.585 81.6375L122.644 83.0588L122.54 118.346C122.483 137.754 122.533 154.314 122.652 155.147C122.89 156.812 124.374 158.79 126.029 159.646C127.29 160.298 131.028 160.307 132.27 159.661C133.588 158.976 134.676 157.74 135.321 156.196C135.802 155.046 135.866 150.66 135.859 119.529C135.852 85.9048 135.819 84.0994 135.201 82.7581C133.556 79.1942 129.526 77.7407 126.053 79.4597ZM103.955 90.3988C102.205 91.0501 100.982 92.0847 100.239 93.5413C99.551 94.8887 99.5369 95.5354 99.6292 120.955L99.7241 146.989L100.712 148.284C101.828 149.747 103.021 150.462 104.951 150.824C107.918 151.381 111.489 149.201 112.252 146.368C112.481 145.518 112.574 135.972 112.513 119.694L112.418 94.3425L111.48 92.925C109.969 90.6425 106.463 89.4655 103.955 90.3988ZM147.094 100.525C146.027 101.202 145.236 102.066 144.733 103.105C143.992 104.636 143.977 104.996 143.985 121.745C143.992 137.561 144.041 138.928 144.64 140.234C145.411 141.912 146.197 142.664 147.945 143.394C149.597 144.084 151.404 144.084 153.056 143.394C156.12 142.114 156.749 140.78 157.038 134.945C157.289 129.845 157.649 128.764 159.64 127.131C160.311 126.58 161.835 125.754 163.027 125.296C164.588 124.695 165.382 124.153 165.867 123.357C167.308 120.994 166.343 119.421 162.576 117.992C159.671 116.89 157.95 115.345 157.392 113.337C157.192 112.615 157.027 110.33 157.026 108.257C157.023 104.12 156.744 103.008 155.326 101.491C153.218 99.2364 149.765 98.8312 147.094 100.525ZM79.6251 108.822C78.3109 109.409 76.7933 111.001 76.2979 112.312C76.0715 112.911 75.9227 116.607 75.9227 121.633C75.9227 129.369 75.9752 130.071 76.6618 131.489C77.7563 133.75 79.8801 134.899 82.6012 134.702C85.0585 134.524 86.8255 133.372 87.9147 131.236C88.5568 129.978 88.6168 129.151 88.6168 121.583C88.6168 116.591 88.468 112.911 88.2416 112.312C87.7821 111.096 86.2983 109.488 85.0201 108.82C83.8286 108.198 81.0218 108.199 79.6251 108.822Z" fill="url(#paint0_linear_18_62)"/>
<path d="M125.187 79.133C128.801 77.4547 132.94 79.0003 134.639 82.6819L134.702 82.8255C135.006 83.5594 135.15 84.6079 135.23 89.1026C135.317 93.9287 135.326 102.79 135.33 119.601L135.329 130.067C135.323 139.372 135.301 145.331 135.244 149.182C135.206 151.749 135.153 153.386 135.079 154.456C135.01 155.447 134.922 155.987 134.792 156.336L134.765 156.404C134.114 157.963 133.023 159.235 131.682 159.976L131.552 160.046C131.188 160.235 130.675 160.362 130.118 160.444C129.553 160.526 128.912 160.566 128.274 160.565C127.637 160.563 126.995 160.52 126.427 160.435C125.903 160.355 125.417 160.236 125.056 160.065L124.985 160.031C124.102 159.574 123.279 158.827 122.646 157.983C122.054 157.194 121.61 156.296 121.45 155.439L121.422 155.268C121.403 155.138 121.389 154.76 121.377 154.202C121.364 153.629 121.353 152.837 121.342 151.85C121.322 149.876 121.306 147.12 121.296 143.785C121.276 137.114 121.277 128.121 121.306 118.417L121.41 83.0238L121.468 82.9357L122.409 81.5142L122.525 81.3479C123.128 80.5139 124.125 79.656 125.015 79.2153L125.187 79.133ZM134.319 82.8296C132.674 79.2657 128.644 77.8121 125.172 79.5311C124.278 79.9736 123.254 80.8769 122.703 81.7091L121.762 83.1302L121.658 118.418C121.601 137.826 121.652 154.386 121.771 155.218C122.008 156.884 123.493 158.862 125.147 159.717C126.408 160.37 130.147 160.379 131.389 159.733C132.706 159.047 133.795 157.811 134.44 156.268C134.92 155.118 134.984 150.73 134.978 119.601C134.97 85.977 134.938 84.1709 134.319 82.8296ZM103.078 90.0947C104.396 89.6439 105.93 89.7259 107.322 90.1932C108.76 90.6757 110.085 91.5825 110.892 92.802L111.889 94.3071L111.994 122.737C112.012 129.488 112.001 134.928 111.962 138.892C111.94 141.156 111.909 142.941 111.869 144.214C111.849 144.85 111.826 145.36 111.801 145.74C111.781 146.059 111.757 146.313 111.725 146.47L111.711 146.531C111.3 148.056 110.146 149.376 108.73 150.24C107.358 151.077 105.699 151.512 104.154 151.268L104.005 151.242C103.011 151.056 102.188 150.775 101.464 150.341C100.784 149.934 100.206 149.4 99.659 148.709L99.5502 148.569L98.4903 147.18L98.3953 121.028C98.3491 108.321 98.3293 101.798 98.4073 98.2847C98.4463 96.5308 98.51 95.5095 98.6101 94.8381C98.7004 94.2331 98.8216 93.9051 98.9752 93.5884L99.043 93.4524C99.8318 91.906 101.131 90.8172 102.951 90.1398L103.078 90.0947ZM110.598 92.9965C109.088 90.714 105.582 89.537 103.074 90.4704C101.324 91.1216 100.1 92.1562 99.357 93.6129C98.6695 94.9602 98.6555 95.6072 98.7479 121.027L98.8426 147.061L99.8305 148.355C100.947 149.819 102.14 150.534 104.07 150.896C107.037 151.452 110.608 149.272 111.37 146.44C111.599 145.589 111.692 136.043 111.631 119.765L111.537 94.4139L110.598 92.9965ZM146.156 100.217C148.946 98.5313 152.509 98.9762 154.702 101.322L154.838 101.469C155.497 102.201 155.918 102.885 156.167 103.877C156.427 104.909 156.496 106.263 156.497 108.329L156.499 108.716C156.508 109.624 156.547 110.551 156.604 111.35C156.671 112.274 156.761 112.992 156.85 113.314L156.902 113.487C157.467 115.26 159.055 116.686 161.819 117.734L162.167 117.87C163.869 118.551 165.032 119.297 165.593 120.211C166.183 121.173 166.062 122.231 165.422 123.381L165.287 123.612C164.774 124.453 163.964 125.014 162.561 125.583L162.272 125.697C161.174 126.119 159.798 126.857 159.11 127.375L158.982 127.475C158.015 128.269 157.481 128.896 157.14 129.921C156.831 130.847 156.676 132.109 156.557 134.123L156.508 135.034C156.365 137.942 156.136 139.804 155.525 141.099C154.934 142.353 154.003 143.046 152.598 143.668L152.31 143.791C150.626 144.495 148.785 144.517 147.091 143.857L146.928 143.791C146.032 143.417 145.356 143.026 144.801 142.496C144.316 142.031 143.939 141.475 143.588 140.766L143.439 140.453C143.107 139.731 142.944 139.001 142.856 136.515C142.768 134.025 142.754 129.722 142.751 121.817L142.75 116.271C142.754 111.423 142.772 108.564 142.844 106.776C142.892 105.585 142.964 104.849 143.075 104.308C143.189 103.756 143.344 103.415 143.534 103.023L143.638 102.818C144.174 101.807 144.977 100.963 146.024 100.299L146.156 100.217ZM154.445 101.563C152.336 99.308 148.884 98.9027 146.213 100.597C145.146 101.273 144.354 102.138 143.851 103.176C143.11 104.708 143.096 105.068 143.104 121.817C143.111 137.633 143.159 139 143.759 140.306C144.529 141.983 145.316 142.735 147.064 143.466C148.716 144.156 150.522 144.156 152.174 143.466C155.239 142.185 155.868 140.851 156.156 135.016C156.408 129.917 156.768 128.836 158.758 127.202C159.429 126.652 160.954 125.826 162.145 125.367C163.706 124.767 164.5 124.225 164.986 123.428C166.427 121.066 165.461 119.493 161.694 118.064C158.789 116.962 157.068 115.416 156.51 113.408C156.31 112.687 156.145 110.401 156.144 108.329C156.142 104.192 155.863 103.079 154.445 101.563ZM81.518 108.073C82.5611 108.072 83.6297 108.228 84.3017 108.579L84.4309 108.649C85.0771 109.012 85.747 109.577 86.3155 110.193C86.9202 110.848 87.438 111.593 87.6898 112.259L87.7197 112.351C87.7476 112.449 87.77 112.568 87.7897 112.696C87.8169 112.874 87.8422 113.094 87.8654 113.351C87.9119 113.867 87.952 114.545 87.9849 115.358C88.0507 116.983 88.0879 119.156 88.0879 121.654C88.0879 125.433 88.073 127.547 87.9766 128.873C87.8848 130.135 87.7168 130.714 87.4105 131.342L87.3472 131.468C86.2358 133.647 84.4381 134.861 81.9846 135.105L81.7449 135.125C78.985 135.325 76.7694 134.193 75.5752 131.936L75.463 131.714C75.0992 130.962 74.9035 130.389 74.8015 129.028C74.7013 127.692 74.6885 125.566 74.6885 121.705C74.6885 119.189 74.7257 117.003 74.7915 115.37C74.8244 114.554 74.8645 113.872 74.911 113.354C74.9342 113.096 74.9595 112.875 74.9867 112.697C75.0129 112.526 75.0443 112.371 75.0866 112.259L75.14 112.125C75.4234 111.45 75.931 110.739 76.5177 110.124C77.1439 109.467 77.8885 108.889 78.6 108.572L78.7467 108.51C79.5003 108.212 80.5347 108.073 81.518 108.073ZM84.1385 108.892C82.947 108.269 80.1403 108.27 78.7436 108.894C77.4295 109.48 75.912 111.072 75.4165 112.384C75.1901 112.983 75.0412 116.678 75.0412 121.705C75.0412 129.44 75.0936 130.142 75.7801 131.56C76.8746 133.821 78.9987 134.97 81.7198 134.773C84.1771 134.596 85.9439 133.443 87.0331 131.307C87.6752 130.049 87.7352 129.223 87.7352 121.654C87.7352 116.663 87.5863 112.982 87.3599 112.384C86.9004 111.168 85.4167 109.559 84.1385 108.892Z" fill="url(#paint1_linear_18_62)"/>
<path fill-rule="evenodd" clip-rule="evenodd" d="M125.172 79.5311C128.644 77.8121 132.674 79.2657 134.319 82.8296C134.938 84.1709 134.97 85.977 134.978 119.601C134.984 150.73 134.92 155.118 134.44 156.268C133.795 157.811 132.706 159.047 131.389 159.733C130.147 160.379 126.408 160.37 125.147 159.717C123.493 158.862 122.008 156.884 121.771 155.218C121.652 154.386 121.601 137.826 121.658 118.418L121.762 83.1302L122.703 81.7091C123.254 80.8769 124.278 79.9736 125.172 79.5311Z" fill="url(#paint2_linear_18_62)"/>
<path d="M110.598 92.9965C109.088 90.714 105.582 89.537 103.074 90.4704C101.324 91.1216 100.1 92.1562 99.357 93.6129C98.6695 94.9602 98.6555 95.6072 98.7479 121.027L98.8426 147.061L99.8305 148.355C100.947 149.819 102.14 150.534 104.07 150.896C107.037 151.452 110.608 149.272 111.37 146.44C111.599 145.589 111.692 136.043 111.631 119.765L111.537 94.4139L110.598 92.9965Z" fill="url(#paint3_linear_18_62)"/>
<path d="M84.1385 108.892C82.947 108.269 80.1403 108.27 78.7436 108.894C77.4295 109.48 75.912 111.072 75.4165 112.384C75.1901 112.983 75.0412 116.678 75.0412 121.705C75.0412 129.44 75.0936 130.142 75.7801 131.56C76.8746 133.821 78.9987 134.97 81.7198 134.773C84.1771 134.596 85.9439 133.443 87.0331 131.307C87.6752 130.049 87.7352 129.223 87.7352 121.654C87.7352 116.663 87.5863 112.982 87.3599 112.384C86.9004 111.168 85.4167 109.559 84.1385 108.892Z" fill="url(#paint4_linear_18_62)"/>
<path d="M154.445 101.563C152.336 99.308 148.884 98.9027 146.213 100.597C145.146 101.273 144.354 102.138 143.851 103.176C143.11 104.708 143.096 105.068 143.104 121.817C143.111 137.633 143.159 139 143.759 140.306C144.529 141.983 145.316 142.735 147.064 143.466C148.716 144.156 150.522 144.156 152.174 143.466C155.239 142.185 155.868 140.851 156.156 135.016C156.408 129.917 156.768 128.836 158.758 127.202C159.429 126.652 160.954 125.826 162.145 125.367C163.706 124.767 164.5 124.225 164.986 123.428C166.427 121.066 165.461 119.493 161.694 118.064C158.789 116.962 157.068 115.416 156.51 113.408C156.31 112.687 156.145 110.401 156.144 108.329C156.142 104.192 155.863 103.079 154.445 101.563Z" fill="url(#paint5_linear_18_62)"/>
<defs>
<linearGradient id="paint0_linear_18_62" x1="120" y1="64" x2="120" y2="202.118" gradientUnits="userSpaceOnUse">
<stop stop-color="#C03BC4"/>
<stop offset="1" stop-color="#FF5C39"/>
</linearGradient>
<linearGradient id="paint1_linear_18_62" x1="119.118" y1="64.0714" x2="119.118" y2="202.189" gradientUnits="userSpaceOnUse">
<stop stop-color="#FF7600"/>
<stop offset="1" stop-color="#FACA00"/>
</linearGradient>
<linearGradient id="paint2_linear_18_62" x1="119.118" y1="64.0714" x2="119.118" y2="202.189" gradientUnits="userSpaceOnUse">
<stop stop-color="#FF7600"/>
<stop offset="1" stop-color="#FACA00"/>
</linearGradient>
<linearGradient id="paint3_linear_18_62" x1="119.118" y1="64.0714" x2="119.118" y2="202.189" gradientUnits="userSpaceOnUse">
<stop stop-color="#FF7600"/>
<stop offset="1" stop-color="#FACA00"/>
</linearGradient>
<linearGradient id="paint4_linear_18_62" x1="119.118" y1="64.0714" x2="119.118" y2="202.189" gradientUnits="userSpaceOnUse">
<stop stop-color="#FF7600"/>
<stop offset="1" stop-color="#FACA00"/>
</linearGradient>
<linearGradient id="paint5_linear_18_62" x1="119.118" y1="64.0714" x2="119.118" y2="202.189" gradientUnits="userSpaceOnUse">
<stop stop-color="#FF7600"/>
<stop offset="1" stop-color="#FACA00"/>
</linearGradient>
</defs>
</svg>
