<svg width="160" height="160" viewBox="0 0 160 160" fill="none" xmlns="http://www.w3.org/2000/svg">
<path fill-rule="evenodd" clip-rule="evenodd" d="M106.853 43.2344C114.598 45.4288 120.056 50.6336 122.135 57.807L122.666 59.6384V81.383C122.666 105.775 122.76 104.328 120.907 108.327C119.659 111.019 118.428 112.731 116.278 114.764C114.226 116.705 112.705 117.69 109.929 118.881C106.194 120.482 105.874 120.509 90.9307 120.446C81.6724 120.407 77.1905 120.471 76.4281 120.653C75.6714 120.833 74.8964 121.288 73.9598 122.101C72.5275 123.345 67.1788 128.336 63.7794 131.601C60.9138 134.352 60.2606 134.745 58.5483 134.745C56.3174 134.745 54.7471 133.566 54.135 131.432C54.0092 130.993 53.9062 128.647 53.9062 126.218C53.9062 120.853 53.7845 120.419 52.1084 119.82C49.8784 119.023 46.7153 117.4 45.2898 116.322C42.0556 113.876 39.498 110.318 38.1265 106.358L37.3334 104.068V59.6384L37.8776 57.7578C38.5222 55.53 40.1672 52.3147 41.5904 50.5015C43.7815 47.7098 47.495 45.1169 51.2028 43.7899C54.417 42.6394 54.4991 42.6363 80.5873 42.6791C104.976 42.7193 105.04 42.7207 106.853 43.2344ZM84.0354 52.9731C83.4395 53.2681 82.7571 53.8701 82.3899 54.4249L81.7627 55.3725L81.6934 78.8975C81.6553 91.8361 81.6889 102.876 81.7681 103.431C81.9266 104.541 82.9162 105.86 84.0192 106.431C84.8601 106.865 87.3523 106.872 88.1803 106.441C89.0588 105.984 89.7842 105.16 90.2142 104.131C90.5346 103.364 90.5773 100.44 90.5729 79.6862C90.5679 57.2698 90.5463 56.0662 90.1338 55.172C89.0371 52.7961 86.3504 51.8271 84.0354 52.9731ZM69.3037 60.2659C68.1368 60.7 67.3211 61.3898 66.8258 62.3609C66.3674 63.2591 66.358 63.6902 66.4195 80.6366L66.4828 97.9927L67.1415 98.8559C67.8855 99.8315 68.681 100.308 69.9675 100.549C71.9455 100.92 74.3261 99.4673 74.8346 97.5787C74.9871 97.0122 75.0494 90.648 75.0087 79.7957L74.9455 62.8949L74.32 61.9499C73.3129 60.4283 70.9755 59.6436 69.3037 60.2659ZM98.0629 67.0168C97.3515 67.4676 96.8238 68.0443 96.4888 68.7363C95.9944 69.7575 95.9848 69.9975 95.99 81.1634C95.9947 91.7075 96.0271 92.6186 96.427 93.4894C96.9406 94.6079 97.4648 95.109 98.6303 95.5961C99.7314 96.0562 100.936 96.0562 102.037 95.5961C104.08 94.7423 104.499 93.853 104.692 89.9632C104.86 86.5636 105.1 85.8429 106.427 84.7539C106.874 84.3868 107.89 83.8362 108.685 83.5306C109.725 83.13 110.255 82.7687 110.578 82.2377C111.539 80.6627 110.895 79.614 108.384 78.6615C106.447 77.9269 105.3 76.8963 104.928 75.5578C104.794 75.0768 104.685 73.553 104.684 72.1715C104.682 69.4134 104.496 68.6717 103.551 67.6609C102.145 66.1576 99.8436 65.8875 98.0629 67.0168ZM53.0835 72.5481C52.2073 72.9393 51.1956 74.0006 50.8653 74.8749C50.7144 75.2743 50.6152 77.7376 50.6152 81.0889C50.6152 86.2457 50.6502 86.7138 51.1079 87.659C51.8376 89.1666 53.2534 89.9324 55.0675 89.8013C56.7057 89.6828 57.8837 88.9143 58.6099 87.4907C59.0379 86.6519 59.0779 86.1009 59.0779 81.055C59.0779 77.7275 58.9787 75.274 58.8278 74.8749C58.5215 74.0641 57.5323 72.9919 56.6801 72.5467C55.8858 72.1318 54.0146 72.1325 53.0835 72.5481Z" fill="url(#paint0_linear_18_62)"/>
<path d="M83.4579 52.7553C85.8678 51.6364 88.6266 52.6668 89.7595 55.1212L89.8015 55.2169C90.0041 55.7062 90.1 56.4052 90.1537 59.4017C90.2113 62.619 90.2178 68.5268 90.2202 79.7336L90.2193 86.7111C90.2152 92.9145 90.2005 96.8873 90.1628 99.4548C90.1377 101.166 90.1024 102.257 90.0529 102.97C90.007 103.631 89.9481 103.991 89.8612 104.224L89.8435 104.269C89.4092 105.308 88.6819 106.157 87.7882 106.65L87.7012 106.697C87.4591 106.823 87.117 106.908 86.7455 106.962C86.3688 107.017 85.9416 107.044 85.5164 107.043C85.0912 107.042 84.6632 107.013 84.285 106.956C83.9351 106.904 83.6113 106.824 83.3707 106.71L83.3236 106.687C82.7348 106.383 82.1859 105.884 81.7639 105.322C81.3691 104.796 81.0733 104.197 80.9667 103.626L80.9478 103.512C80.9354 103.425 80.9262 103.173 80.918 102.801C80.9095 102.42 80.9019 101.891 80.895 101.233C80.8813 99.9171 80.8708 98.0801 80.864 95.8565C80.8505 91.4092 80.8517 85.414 80.8707 78.9444L80.9403 55.3491L80.9791 55.2904L81.6062 54.3427L81.6831 54.2318C82.0853 53.6759 82.7501 53.1039 83.3436 52.8101L83.4579 52.7553ZM89.5462 55.2196C88.4496 52.8437 85.7628 51.8747 83.4478 53.0206C82.8519 53.3157 82.1695 53.9179 81.8023 54.4726L81.1751 55.4201L81.1058 78.9451C81.0677 91.8837 81.1014 102.924 81.1806 103.479C81.3391 104.589 82.3286 105.908 83.4315 106.478C84.2724 106.913 86.7647 106.919 87.5926 106.488C88.4711 106.031 89.1966 105.207 89.6266 104.178C89.947 103.412 89.9896 100.487 89.9852 79.7339C89.9802 57.3179 89.9588 56.1139 89.5462 55.2196ZM68.7186 60.063C69.5974 59.7625 70.6203 59.8172 71.5482 60.1287C72.5065 60.4504 73.3903 61.0549 73.9284 61.8679L74.5927 62.8713L74.6625 81.8245C74.6747 86.3253 74.6675 89.9519 74.6416 92.5944C74.6269 94.1042 74.6059 95.294 74.5792 96.1424C74.5658 96.5663 74.5509 96.9068 74.5344 97.16C74.5206 97.3727 74.5049 97.5421 74.4835 97.6467L74.4738 97.6876C74.2002 98.7039 73.4305 99.5838 72.4869 100.16C71.5723 100.718 70.4661 101.008 69.436 100.845L69.3366 100.828C68.6742 100.704 68.1255 100.517 67.6426 100.227C67.1893 99.9556 66.8039 99.6 66.4395 99.1396L66.3669 99.0461L65.6603 98.1201L65.597 80.685C65.5662 72.2139 65.553 67.8653 65.605 65.523C65.631 64.3538 65.6734 63.6729 65.7402 63.2253C65.8004 62.822 65.8812 62.6033 65.9836 62.3922L66.0288 62.3015C66.5547 61.2706 67.4205 60.5447 68.6341 60.0931L68.7186 60.063ZM73.7323 61.9976C72.7253 60.4759 70.3879 59.6912 68.7161 60.3135C67.5492 60.7477 66.7335 61.4374 66.2381 62.4085C65.7798 63.3067 65.7705 63.7381 65.832 80.6843L65.8952 98.0404L66.5538 98.9036C67.2978 99.8791 68.0934 100.356 69.38 100.597C71.3579 100.968 73.7386 99.5148 74.247 97.6263C74.3996 97.059 74.4617 90.6949 74.421 79.8434L74.3579 62.9425L73.7323 61.9976ZM97.4376 66.8114C99.2977 65.6874 101.673 65.984 103.135 67.548L103.225 67.6461C103.665 68.1338 103.946 68.5901 104.112 69.2512C104.285 69.9395 104.331 70.8419 104.331 72.219L104.333 72.4773C104.339 73.0826 104.365 73.7009 104.403 74.233C104.447 74.8493 104.507 75.3278 104.567 75.5425L104.601 75.6577C104.978 76.8402 106.036 77.7903 107.88 78.4894L108.111 78.5796C109.246 79.0336 110.022 79.5314 110.396 80.1409C110.789 80.782 110.708 81.487 110.281 82.2536L110.191 82.4076C109.849 82.9689 109.309 83.3425 108.374 83.7217L108.181 83.7977C107.449 84.0793 106.532 84.5712 106.074 84.9163L105.988 84.9834C105.344 85.5123 104.988 85.9304 104.76 86.614C104.554 87.2315 104.451 88.0726 104.372 89.4154L104.339 90.0223C104.243 91.9611 104.091 93.2023 103.684 94.0659C103.29 94.9016 102.669 95.3639 101.732 95.7783L101.54 95.8607C100.417 96.3298 99.1904 96.3444 98.0611 95.9045L97.952 95.8607C97.355 95.6112 96.9039 95.3505 96.5342 94.997C96.2105 94.6875 95.9596 94.3169 95.7252 93.8442L95.6258 93.635C95.4048 93.1538 95.2964 92.6671 95.2376 91.0099C95.1788 89.3501 95.1697 86.481 95.1674 81.2111L95.1669 77.514C95.1691 74.2818 95.1818 72.3761 95.2296 71.1839C95.2615 70.3896 95.3093 69.899 95.3836 69.5388C95.4598 69.1704 95.5628 68.9436 95.6897 68.6816L95.7588 68.5453C96.1161 67.8709 96.6513 67.3083 97.3494 66.8658L97.4376 66.8114ZM102.963 67.7085C101.558 66.2052 99.2559 65.9351 97.4752 67.0643C96.7639 67.5152 96.2361 68.092 95.9011 68.784C95.4068 69.8051 95.3973 70.0456 95.4025 81.2111C95.4072 91.7551 95.4395 92.6663 95.8393 93.537C96.353 94.6555 96.8772 95.1567 98.0427 95.6437C99.1438 96.1038 100.348 96.1038 101.449 95.6437C103.493 94.7899 103.912 93.9006 104.104 90.0109C104.272 86.6112 104.512 85.8905 105.839 84.8016C106.286 84.4344 107.303 83.8838 108.097 83.5782C109.138 83.1776 109.667 82.8163 109.991 82.2853C110.951 80.7103 110.308 79.6616 107.796 78.7091C105.86 77.9745 104.712 76.9439 104.34 75.6054C104.207 75.1243 104.097 73.6005 104.096 72.219C104.095 69.461 103.908 68.7193 102.963 67.7085ZM54.3455 72.0485C55.0408 72.0482 55.7533 72.1519 56.2013 72.3859L56.2874 72.4325C56.7182 72.6747 57.1648 73.0511 57.5438 73.4619C57.9469 73.8989 58.2922 74.3951 58.46 74.8393L58.48 74.9004C58.4985 74.9661 58.5135 75.0454 58.5266 75.1306C58.5447 75.249 58.5616 75.3959 58.5771 75.5675C58.6081 75.9111 58.6348 76.3635 58.6567 76.9049C58.7006 77.9883 58.7254 79.4369 58.7254 81.1026C58.7254 83.6218 58.7155 85.0313 58.6512 85.9152C58.59 86.7568 58.478 87.1429 58.2738 87.5609L58.2316 87.6452C57.4907 89.0976 56.2922 89.9075 54.6565 90.0696L54.4968 90.0834C52.6568 90.2164 51.1797 89.4621 50.3836 87.9569L50.3088 87.8091C50.0662 87.3082 49.9358 86.9258 49.8678 86.0185C49.801 85.1278 49.7925 83.7108 49.7925 81.1365C49.7925 79.4591 49.8173 78.0021 49.8611 76.9132C49.883 76.369 49.9098 75.9145 49.9408 75.5695C49.9563 75.3973 49.9731 75.2498 49.9913 75.1311C50.0087 75.0172 50.0297 74.9142 50.0579 74.8395L50.0934 74.7498C50.2824 74.2999 50.6208 73.826 51.0119 73.4158C51.4294 72.9778 51.9258 72.5929 52.4001 72.3811L52.4979 72.34C53.0003 72.1415 53.6899 72.0487 54.3455 72.0485ZM56.0925 72.5944C55.2981 72.1795 53.427 72.1801 52.4959 72.5957C51.6198 72.9869 50.6081 74.0482 50.2778 74.9224C50.1269 75.3218 50.0276 77.7853 50.0276 81.1365C50.0276 86.2934 50.0625 86.7615 50.5202 87.7067C51.2499 89.2142 52.6659 89.98 54.48 89.8488C56.1182 89.7303 57.2961 88.9618 58.0222 87.5382C58.4502 86.6995 58.4903 86.1483 58.4903 81.1026C58.4903 77.7751 58.391 75.3216 58.2401 74.9224C57.9337 74.1116 56.9446 73.0396 56.0925 72.5944Z" fill="url(#paint1_linear_18_62)"/>
<path fill-rule="evenodd" clip-rule="evenodd" d="M83.4478 53.0206C85.7628 51.8747 88.4496 52.8437 89.5462 55.2196C89.9588 56.1139 89.9802 57.3179 89.9852 79.7339C89.9896 100.487 89.947 103.412 89.6266 104.178C89.1966 105.207 88.4711 106.031 87.5926 106.488C86.7647 106.919 84.2724 106.913 83.4315 106.478C82.3286 105.908 81.3391 104.589 81.1806 103.479C81.1014 102.924 81.0677 91.8837 81.1058 78.9451L81.1751 55.4201L81.8023 54.4726C82.1695 53.9179 82.8519 53.3157 83.4478 53.0206Z" fill="url(#paint2_linear_18_62)"/>
<path d="M73.7323 61.9976C72.7253 60.4759 70.3879 59.6912 68.7161 60.3135C67.5492 60.7477 66.7335 61.4374 66.2381 62.4085C65.7798 63.3067 65.7705 63.7381 65.832 80.6843L65.8952 98.0404L66.5538 98.9036C67.2978 99.8791 68.0934 100.356 69.38 100.597C71.3579 100.968 73.7386 99.5148 74.247 97.6263C74.3996 97.059 74.4617 90.6949 74.421 79.8434L74.3579 62.9425L73.7323 61.9976Z" fill="url(#paint3_linear_18_62)"/>
<path d="M56.0925 72.5944C55.2981 72.1795 53.427 72.1801 52.4959 72.5957C51.6198 72.9869 50.6081 74.0482 50.2778 74.9224C50.1269 75.3218 50.0276 77.7853 50.0276 81.1365C50.0276 86.2934 50.0625 86.7615 50.5202 87.7067C51.2499 89.2142 52.6659 89.98 54.48 89.8488C56.1182 89.7303 57.2961 88.9618 58.0222 87.5382C58.4502 86.6995 58.4903 86.1483 58.4903 81.1026C58.4903 77.7751 58.391 75.3216 58.2401 74.9224C57.9337 74.1116 56.9446 73.0396 56.0925 72.5944Z" fill="url(#paint4_linear_18_62)"/>
<path d="M102.963 67.7085C101.558 66.2052 99.2559 65.9351 97.4752 67.0643C96.7639 67.5152 96.2361 68.092 95.9011 68.784C95.4068 69.8051 95.3973 70.0456 95.4025 81.2111C95.4072 91.7551 95.4395 92.6663 95.8393 93.537C96.353 94.6555 96.8772 95.1567 98.0427 95.6437C99.1438 96.1038 100.348 96.1038 101.449 95.6437C103.493 94.7899 103.912 93.9006 104.104 90.0109C104.272 86.6112 104.512 85.8905 105.839 84.8016C106.286 84.4344 107.303 83.8838 108.097 83.5782C109.138 83.1776 109.667 82.8163 109.991 82.2853C110.951 80.7103 110.308 79.6616 107.796 78.7091C105.86 77.9745 104.712 76.9439 104.34 75.6054C104.207 75.1243 104.097 73.6005 104.096 72.219C104.095 69.461 103.908 68.7193 102.963 67.7085Z" fill="url(#paint5_linear_18_62)"/>
<defs>
<linearGradient id="paint0_linear_18_62" x1="80" y1="42.6666" x2="80" y2="134.745" gradientUnits="userSpaceOnUse">
<stop stop-color="#C03BC4"/>
<stop offset="1" stop-color="#FF5C39"/>
</linearGradient>
<linearGradient id="paint1_linear_18_62" x1="79.4124" y1="42.7142" x2="79.4124" y2="134.793" gradientUnits="userSpaceOnUse">
<stop stop-color="#FF7600"/>
<stop offset="1" stop-color="#FACA00"/>
</linearGradient>
<linearGradient id="paint2_linear_18_62" x1="79.4124" y1="42.7142" x2="79.4124" y2="134.793" gradientUnits="userSpaceOnUse">
<stop stop-color="#FF7600"/>
<stop offset="1" stop-color="#FACA00"/>
</linearGradient>
<linearGradient id="paint3_linear_18_62" x1="79.4124" y1="42.7142" x2="79.4124" y2="134.793" gradientUnits="userSpaceOnUse">
<stop stop-color="#FF7600"/>
<stop offset="1" stop-color="#FACA00"/>
</linearGradient>
<linearGradient id="paint4_linear_18_62" x1="79.4124" y1="42.7142" x2="79.4124" y2="134.793" gradientUnits="userSpaceOnUse">
<stop stop-color="#FF7600"/>
<stop offset="1" stop-color="#FACA00"/>
</linearGradient>
<linearGradient id="paint5_linear_18_62" x1="79.4124" y1="42.7142" x2="79.4124" y2="134.793" gradientUnits="userSpaceOnUse">
<stop stop-color="#FF7600"/>
<stop offset="1" stop-color="#FACA00"/>
</linearGradient>
</defs>
</svg>
